PathFileType	4	(X/Y/Z)	/Users/whiskymisky/masters/Sports2D_results/trial_4_Sports2D/trial_4_Sports2D_px_person00.trc
DataRate	CameraRate	NumFrames	NumMarkers	Units	OrigDataRate	OrigDataStartFrame	OrigNumFrames
50	50	10	22	m	50	0	1098
Frame#	Time	Hip			RHip			RKnee			RAnkle			RBigToe			RSmallToe			RHeel			LHip			LKnee			LAnkle			LBigToe			LSmallToe			LHeel			Neck			Head			Nose			RShoulder			RElbow			RWrist			LShoulder			LElbow			LWrist		
		X1	Y1	Z1	X2	Y2	Z2	X3	Y3	Z3	X4	Y4	Z4	X5	Y5	Z5	X6	Y6	Z6	X7	Y7	Z7	X8	Y8	Z8	X9	Y9	Z9	X10	Y10	Z10	X11	Y11	Z11	X12	Y12	Z12	X13	Y13	Z13	X14	Y14	Z14	X15	Y15	Z15	X16	Y16	Z16	X17	Y17	Z17	X18	Y18	Z18	X19	Y19	Z19	X20	Y20	Z20	X21	Y21	Z21	X22	Y22	Z22
0	0.0	958.8347526628389	610.8075311774837	0.0	924.0091295323294	614.4720824831429	0.0	892.8486493855693	744.6048699497292	0.0	872.6861884925084	865.5730983447344	0.0	867.1856808563945	896.7334266593389	0.0	850.6916015653908	893.0675167958287	0.0	878.183541986068	880.240026197841	0.0	988.158329953275	614.4723294129024	0.0	1010.1538763066073	742.7679220691598	0.0	1026.6516266907988	852.7432656690106	0.0	1043.1450009033451	882.0709136168907	0.0	1055.976799000949	878.4059905809977	0.0	1019.3165129791323	865.5762145858273	0.0	960.666088344922	427.5120159987625	0.0	958.8321767767648	341.3683515608784	0.0	955.1684371686679	396.35388518666394	0.0	907.5089900937849	456.8427214123565	0.0	891.0156759845522	544.8219858516584	0.0	885.5152985096296	623.6328285424661	0.0	1017.4846124875581	460.5075716996839	0.0	1028.483497297995	548.4866490903701	0.0	1022.9835445767533	627.3020424283296	0.0
1	0.02	957.9779449647772	608.2780436790955	0.0	924.2923138078686	612.3516183261352	0.0	893.4700739621967	744.3408617136122	0.0	872.1291111061461	866.6392725883188	0.0	868.87913944915	896.9562802350375	0.0	851.8269294368824	893.4123660327276	0.0	877.2133596246397	878.9258693993147	0.0	988.3897578428215	613.5634707200201	0.0	1009.6535070824035	742.3223662786027	0.0	1026.756795649023	853.9413660817811	0.0	1043.1309820762335	882.7665003374474	0.0	1054.6316849278055	877.8480963249401	0.0	1019.9018084886652	864.993514732762	0.0	960.4063304404732	428.4485774943286	0.0	958.9282386763848	343.54239310462253	0.0	954.9853262090398	396.9394097625022	0.0	907.8633268078975	456.5549918253835	0.0	891.69805219355	544.5963164092907	0.0	885.9655297266478	624.2610541511971	0.0	1016.4271922056524	459.5264473599631	0.0	1027.3732973797808	547.4156291335245	0.0	1022.7148184245892	626.2902089811782	0.0
2	0.04	957.4634140033289	606.5109441985237	0.0	924.4571505238979	610.960806087738	0.0	893.8903419989024	744.0914790343808	0.0	871.7428845492024	867.3285173458777	0.0	869.9851930781047	897.1234321678648	0.0	852.5515426608133	893.6611360011647	0.0	876.4626938895235	878.0727310195876	0.0	988.5387947767056	613.0209307817845	0.0	1009.3130671041121	742.035443470711	0.0	1026.8424799985498	854.6921422132336	0.0	1043.1527339635825	883.2486924692556	0.0	1053.7323538810044	877.4981879278107	0.0	1020.282368018477	864.6059649411104	0.0	960.2407713272025	429.1392833809973	0.0	959.0272983280947	344.9873562664457	0.0	954.9508784119697	397.3746878902529	0.0	908.0874943786284	456.43625251523844	0.0	892.159064306862	544.5396472795422	0.0	886.3117992719331	624.7634323956623	0.0	1015.7212502440495	458.87545841158965	0.0	1026.6249614209023	546.8242940199923	0.0	1022.478922071597	625.6649730468165	0.0
3	0.06	957.3865948333028	605.7144729014511	0.0	924.4522422349289	610.497750573688	0.0	894.0497110097965	743.8924523412225	0.0	871.5908146276952	867.5840075150213	0.0	870.4121226743576	897.20848053646	0.0	852.7962892907692	893.7777330587886	0.0	876.0477715368147	877.7606391059958	0.0	988.597170856256	612.8911567278625	0.0	1009.1822959545229	742.0012597627804	0.0	1026.875439919528	854.9139388977126	0.0	1043.1952591184927	883.4610653258956	0.0	1053.4165791024882	877.3814714387872	0.0	1020.4321419920619	864.4804058268604	0.0	960.2056566789021	429.51402932444876	0.0	959.1518427731739	345.5588329645889	0.0	955.017086964241	397.58467372618753	0.0	908.2041363015963	456.4615288254608	0.0	892.3341570377901	544.5892609898649	0.0	886.534337921478	625.0362686017198	0.0	1015.4424759712618	458.655049187802	0.0	1026.3365709936047	546.7506046191231	0.0	1022.2947437819423	625.4885210992329	0.0
4	0.08	957.569088127112	605.5162773706734	0.0	924.3196159073345	610.5550257002674	0.0	894.0553732725089	743.7721600531444	0.0	871.5856477459649	867.6304570023826	0.0	870.5033635214616	897.2347843843901	0.0	852.8091362111837	893.8071983125855	0.0	875.9029410585522	877.7332216767336	0.0	988.610398791054	612.8915739580987	0.0	1009.1762996163498	742.1613954183971	0.0	1026.8605064924989	854.8581051469251	0.0	1043.2130024333928	883.5298466835956	0.0	1053.471409838821	877.378291413303	0.0	1020.4635792443688	864.5037335995669	0.0	960.2754205036081	429.6732052780782	0.0	959.3368141407599	345.6794857146191	0.0	955.0309625864245	397.5976565050599	0.0	908.315400699937	456.50538789548716	0.0	892.3414437449644	544.5675547230992	0.0	886.7249483357393	625.0648279876377	0.0	1015.4381846686009	458.73418162511814	0.0	1026.314559913005	546.9034298055695	0.0	1022.1639931335258	625.5678543712208	0.0
5	0.1	957.7637751999439	605.4942562179256	0.0	924.1627208099003	610.6738890177604	0.0	894.0421258179892	743.7290175990686	0.0	871.5969535022788	867.6490974938358	0.0	870.5755127577514	897.2482512714895	0.0	852.8038262921323	893.8188986454791	0.0	875.8837115412744	877.7611390465972	0.0	988.6095323469343	612.7718602480027	0.0	1009.1848927764914	742.3502545115937	0.0	1026.8481752566138	854.785175360088	0.0	1043.2025400699827	883.6147877980004	0.0	1053.6231811263206	877.3981735614009	0.0	1020.4617343735916	864.5125922622592	0.0	960.4070223609434	429.7107127738869	0.0	959.5543666386495	345.7534627337979	0.0	954.9579375348519	397.4950721920172	0.0	908.4529420639005	456.5303809319996	0.0	892.3275822273993	544.4454579678667	0.0	886.941208721966	624.94883929944	0.0	1015.5229254064737	458.9154871010992	0.0	1026.3310417583198	547.0899121389083	0.0	1022.1089608481506	625.7311315448023	0.0
6	0.12	957.8574438613011	605.5757635066944	0.0	924.084622335531	610.7980494400965	0.0	894.0322534164404	743.7391232117313	0.0	871.5965911370824	867.6294050587396	0.0	870.6767410914154	897.261799460328	0.0	852.7734689818103	893.8288621122322	0.0	875.9518090448811	877.8257856437933	0.0	988.5952172371054	612.5900249657049	0.0	1009.1896013379816	742.4610981556901	0.0	1026.857146935112	854.7419616280737	0.0	1043.1974548565383	883.7498319446261	0.0	1053.7878074666805	877.439485635157	0.0	1020.4306965999442	864.4604304945694	0.0	960.5532050339054	429.6262301171091	0.0	959.7130177717399	345.76668349187815	0.0	954.8972829083174	397.36214664717403	0.0	908.5638583167831	456.5785364324754	0.0	892.3165523739016	544.3513536232012	0.0	887.0984890917857	624.820834238204	0.0	1015.5946489236683	459.0736401331424	0.0	1026.351603657121	547.3255291308095	0.0	1022.1677433425036	625.9071139500566	0.0
7	0.14	957.8372234580933	605.7903048553991	0.0	924.1302577846938	610.9897515303597	0.0	893.9895877624169	743.7616978336279	0.0	871.6219847710873	867.5664362900037	0.0	870.7763643805877	897.2578786421575	0.0	852.697387754285	893.8155310409459	0.0	876.1317135738357	877.9369341936156	0.0	988.5753011014455	612.49981123099	0.0	1009.2224039712421	742.5064330171009	0.0	1026.8566339960403	854.6670192418933	0.0	1043.1885635765007	883.8667778236829	0.0	1053.9444807837374	877.4950039466519	0.0	1020.382169687927	864.3816177235215	0.0	960.6342360593287	429.446743803498	0.0	959.773506033531	345.5825342559889	0.0	954.9145188312174	397.2743540839762	0.0	908.5900795104242	456.62218491419065	0.0	892.270201321829	544.3515322387925	0.0	887.1034530618542	624.7483119132785	0.0	1015.642056995663	459.174088694688	0.0	1026.4283230408096	547.5844678952637	0.0	1022.3208452339502	626.0325092403427	0.0
8	0.16	957.6917827158869	605.9668885532586	0.0	924.2781870638332	611.0798682735528	0.0	893.9409710415514	743.7586268138747	0.0	871.6491797882132	867.5826774426889	0.0	870.9203177520506	897.2408413643706	0.0	852.6959377981638	893.7906838185006	0.0	876.3362019173752	877.9944042281777	0.0	988.5725752576852	612.4591249131087	0.0	1009.263108527277	742.5156826566359	0.0	1026.8412948202847	854.5901997230438	0.0	1043.1253911590286	883.9204172790382	0.0	1053.9771690674024	877.5138930748709	0.0	1020.3692266986352	864.2776495088567	0.0	960.5846638666852	429.2797484438397	0.0	959.7907837531735	345.33614164664345	0.0	954.9927884860643	397.258792239911	0.0	908.5214086026383	456.56645801561694	0.0	892.2187348906941	544.3748517472537	0.0	886.9953910391142	624.7179135754378	0.0	1015.6798497670405	459.22604378488336	0.0	1026.5051748376288	547.7204469527557	0.0	1022.481345437773	626.0578094924269	0.0
9	0.18	957.4809124186455	605.9793070652796	0.0	924.4857376767524	610.941058760062	0.0	893.9365250027117	743.7268049711847	0.0	871.6289783570903	867.7378852449965	0.0	871.0932526742841	897.2374796258163	0.0	852.8376337262106	893.7891781186407	0.0	876.4162257145207	877.9509070492285	0.0	988.5881399424808	612.3836086840546	0.0	1009.268612200159	742.4581583439162	0.0	1026.8468178451842	854.5813984904743	0.0	1043.0012080017289	883.9324239307798	0.0	1053.8357324202916	877.4883351000238	0.0	1020.401960100282	864.1596741274527	0.0	960.441101495033	429.1795064075655	0.0	959.8181250574168	345.2365002773935	0.0	955.1137077344354	397.27434045277863	0.0	908.3875507423368	456.41491488275994	0.0	892.2152656740217	544.3755822896964	0.0	886.8598638632609	624.6861136006527	0.0	1015.7035501039564	459.25086210217125	0.0	1026.5022126043584	547.6794475898918	0.0	1022.5764071764966	626.0166499128768	0.0
